<svg width="24" height="24" viewBox="0 0 24 24" fill="none" xmlns="http://www.w3.org/2000/svg">
<path fill-rule="evenodd" clip-rule="evenodd" d="M4.67271 21.9184C4.01719 21.8302 3.38884 21.6315 2.87918 21.1218C2.36951 20.6122 2.17077 19.9838 2.08264 19.3283C2.01068 18.7931 2.00172 18.1414 2.00064 17.3929L2.00014 10.917C1.99901 10.1535 1.99785 9.47515 2.28373 8.86479C2.5696 8.25442 3.09146 7.82105 3.67885 7.33327C3.7188 7.30009 3.75906 7.26665 3.79956 7.2329L8.01461 3.72034C8.78544 3.07793 9.43382 2.53757 10.0117 2.16593C10.6246 1.77171 11.2568 1.5 12.0005 1.5C12.7442 1.5 13.3764 1.77171 13.9893 2.16593C14.5672 2.53757 15.2155 3.07792 15.9864 3.72033L20.2014 7.2329C20.2419 7.26665 20.2822 7.30009 20.3221 7.33327C20.9095 7.82105 21.4314 8.25443 21.7173 8.86479C21.9714 9.40734 21.9987 10.0036 22.0009 10.6656L22.0005 17.0663C22.0005 17.9528 22.0006 18.7166 21.9183 19.3283C21.8302 19.9838 21.6315 20.6122 21.1218 21.1218C20.6121 21.6315 19.9838 21.8302 19.3283 21.9184C18.7931 21.9902 18.1414 21.9992 17.3929 22.0004L15.0005 22.0005C14.4482 22.0005 14.0005 21.5528 14.0005 21.0005L14.0005 16.0005C14.0005 14.8959 13.1051 14.0005 12.0005 14.0005C10.8959 14.0005 10.0005 14.8959 10.0005 16.0005V21.0005C10.0005 21.5134 9.61445 21.936 9.11712 21.9938L9.0005 22.0005L6.93469 22.0005C6.04819 22.0005 5.28437 22.0005 4.67271 21.9184ZM12.0005 3.5C11.7848 3.5 11.5316 3.56628 11.0935 3.84805C10.6321 4.14482 10.0784 4.60393 9.24769 5.29619L5.07994 8.76934C4.30047 9.4189 4.16722 9.5587 4.09491 9.71309C4.02711 9.85784 4.00346 10.0355 4.00076 10.8932L4.0005 17.0005C4.0005 17.9716 4.00262 18.5993 4.0648 19.0618C4.12312 19.4955 4.21727 19.6315 4.29339 19.7076C4.36951 19.7837 4.50546 19.8779 4.9392 19.9362C5.35546 19.9922 5.90553 19.9995 6.7193 20.0004L8 20L8.0005 16.0005C8.0005 13.7914 9.79136 12.0005 12.0005 12.0005C14.2096 12.0005 16.0005 13.7914 16.0005 16.0005L16 20L17.2817 20.0004C18.0955 19.9995 18.6456 19.9922 19.0618 19.9362C19.4955 19.8779 19.6315 19.7837 19.7076 19.7076C19.7837 19.6315 19.8779 19.4955 19.9362 19.0618C19.9922 18.6456 19.9995 18.0955 20.0004 17.2817L20.0005 11.074C20.0005 10.0594 19.9784 9.86749 19.9061 9.71309C19.8338 9.5587 19.7005 9.4189 18.921 8.76934L14.7533 5.29619C13.9226 4.60393 13.3689 4.14482 12.9074 3.84805C12.4693 3.56628 12.2162 3.5 12.0005 3.5Z" fill="white"/>
</svg>
