<svg width="35" height="33" viewBox="0 0 35 33" fill="none" xmlns="http://www.w3.org/2000/svg">
<path d="M34.1182 0.409492C34.6719 0.79617 35 1.41485 35 2.06576V6.7059V23.7197C35 26.5683 32.0605 28.8754 28.4375 28.8754C24.8145 28.8754 21.875 26.5683 21.875 23.7197C21.875 20.8712 24.8145 18.564 28.4375 18.564C29.2031 18.564 29.9414 18.6671 30.625 18.8605V9.47709L13.125 14.4266V27.8443C13.125 30.6928 10.1855 33 6.5625 33C2.93945 33 0 30.6928 0 27.8443C0 24.9958 2.93945 22.6886 6.5625 22.6886C7.32812 22.6886 8.06641 22.7917 8.75 22.985V12.8927V8.25261C8.75 7.34392 9.38574 6.53834 10.3086 6.27411L32.1836 0.0872606C32.8467 -0.0996337 33.5645 0.0163697 34.1182 0.409492Z" fill="white"/>
</svg>
