<svg width="36" height="27" viewBox="0 0 36 27" fill="none" xmlns="http://www.w3.org/2000/svg">
<path d="M34.4062 22.625C34.9531 22.625 35.5 23.1719 35.5 23.7188V25.9062C35.5 26.5215 34.9531 27 34.4062 27H2.6875C1.45703 27 0.5 26.043 0.5 24.8125V1.84375C0.5 1.29688 0.978516 0.75 1.59375 0.75H3.78125C4.32812 0.75 4.875 1.29688 4.875 1.84375V22.625H34.4062ZM32.2188 2.9375C32.7656 2.9375 33.3125 3.48438 33.2441 4.03125V12.166C33.2441 13.6016 31.5352 14.3535 30.5098 13.3281L28.2539 11.0723L21.6914 17.6348C20.8711 18.5234 19.4355 18.5234 18.6152 17.6348L13.625 12.6445L10.4121 15.7891C10.002 16.1992 9.31836 16.1992 8.9082 15.7891L7.33594 14.2168C6.92578 13.8066 6.92578 13.123 7.33594 12.7129L12.0527 7.99609C12.873 7.10742 14.3086 7.10742 15.1289 7.99609L20.1875 12.9863L25.1777 7.99609L22.9219 5.74023C21.8965 4.71484 22.6484 2.9375 24.084 2.9375H32.2188Z" fill="white"/>
</svg>
